<svg width="265" height="71" viewBox="0 0 265 71" fill="none" xmlns="http://www.w3.org/2000/svg">
<path d="M13.0625 57.4688C12.2292 57.4688 11.3229 57.3958 10.3438 57.25C9.38542 57.125 8.41667 56.8438 7.4375 56.4062C6.47917 55.9688 5.55208 55.3542 4.65625 54.5625C3.78125 53.75 3 52.6875 2.3125 51.375C1.64583 50.0625 1.10417 48.4479 0.6875 46.5312C0.291667 44.5938 0.09375 42.2917 0.09375 39.625V20.7188C0.09375 18.0312 0.302083 15.7396 0.71875 13.8438C1.13542 11.9271 1.6875 10.3229 2.375 9.03125C3.0625 7.71875 3.85417 6.67708 4.75 5.90625C5.64583 5.13542 6.57292 4.55208 7.53125 4.15625C8.48958 3.73958 9.4375 3.46875 10.375 3.34375C11.3333 3.21875 12.2188 3.15625 13.0312 3.15625C15.1562 3.15625 16.9271 3.45833 18.3438 4.0625C19.7812 4.64583 20.9271 5.45833 21.7812 6.5C22.6562 7.52083 23.2708 8.71875 23.625 10.0938C24 11.4688 24.1875 12.9271 24.1875 14.4688C24.1875 15.6146 24.125 16.6771 24 17.6562C23.8958 18.6146 23.7292 19.6771 23.5 20.8438H16.9375V18.125C16.9375 15.1875 16.6146 12.9896 15.9688 11.5312C15.3229 10.0729 14.375 9.34375 13.125 9.34375C12.375 9.34375 11.7188 9.48958 11.1562 9.78125C10.5938 10.0729 10.125 10.5729 9.75 11.2812C9.375 11.9688 9.08333 12.8854 8.875 14.0312C8.6875 15.1771 8.59375 16.6042 8.59375 18.3125V42.6875C8.59375 44.3542 8.66667 45.7396 8.8125 46.8438C8.97917 47.9479 9.23958 48.8333 9.59375 49.5C9.94792 50.1667 10.4062 50.6458 10.9688 50.9375C11.5521 51.2083 12.25 51.3438 13.0625 51.3438C13.5833 51.3438 14.0833 51.2292 14.5625 51C15.0417 50.75 15.4583 50.375 15.8125 49.875C16.1875 49.3542 16.4792 48.7083 16.6875 47.9375C16.9167 47.1458 17.0312 46.2188 17.0312 45.1562V39.9375H24.4375V44.875C24.4375 49.1667 23.4583 52.3333 21.5 54.375C19.5417 56.4167 16.7292 57.4479 13.0625 57.4688ZM41.1562 57.4688C40.2396 57.4688 39.3021 57.3958 38.3438 57.25C37.4062 57.1042 36.4896 56.8021 35.5938 56.3438C34.7188 55.8854 33.8854 55.2292 33.0938 54.375C32.3229 53.5208 31.6458 52.3958 31.0625 51C30.4792 49.6042 30.0208 47.8854 29.6875 45.8438C29.3542 43.8021 29.1875 41.3646 29.1875 38.5312V31.7812C29.1875 28.9896 29.3542 26.6042 29.6875 24.625C30.0417 22.625 30.5104 20.9479 31.0938 19.5938C31.6979 18.2396 32.3958 17.1667 33.1875 16.375C33.9792 15.5625 34.8125 14.9479 35.6875 14.5312C36.5833 14.0938 37.5 13.8125 38.4375 13.6875C39.375 13.5417 40.2917 13.4688 41.1875 13.4688C42.0417 13.4688 42.9271 13.5312 43.8438 13.6562C44.7604 13.7812 45.6562 14.0521 46.5312 14.4688C47.4062 14.8646 48.2292 15.4688 49 16.2812C49.7917 17.0729 50.4792 18.1458 51.0625 19.5C51.6667 20.8542 52.1354 22.5417 52.4688 24.5625C52.8229 26.5625 53 28.9688 53 31.7812V38.5312C53 41.3229 52.8229 43.7292 52.4688 45.75C52.1146 47.7708 51.6354 49.4792 51.0312 50.875C50.4271 52.2708 49.7292 53.4062 48.9375 54.2812C48.1458 55.1354 47.3125 55.8021 46.4375 56.2812C45.5625 56.7604 44.6667 57.0729 43.75 57.2188C42.8542 57.3854 41.9896 57.4688 41.1562 57.4688ZM41.2188 51.375C41.9271 51.375 42.5208 51.1979 43 50.8438C43.5 50.4688 43.8958 49.8646 44.1875 49.0312C44.5 48.1979 44.7188 47.1042 44.8438 45.75C44.9896 44.375 45.0625 42.6771 45.0625 40.6562V30.0625C45.0625 28.0417 44.9896 26.3438 44.8438 24.9688C44.7188 23.5938 44.5 22.4896 44.1875 21.6562C43.8958 20.8021 43.5 20.1875 43 19.8125C42.5208 19.4375 41.9271 19.25 41.2188 19.25C40.4688 19.25 39.8333 19.4375 39.3125 19.8125C38.8125 20.1875 38.3958 20.8021 38.0625 21.6562C37.7292 22.4896 37.4896 23.5938 37.3438 24.9688C37.1979 26.3438 37.125 28.0417 37.125 30.0625V40.6562C37.125 42.6771 37.1979 44.375 37.3438 45.75C37.4896 47.1042 37.7292 48.1979 38.0625 49.0312C38.3958 49.8646 38.8125 50.4688 39.3125 50.8438C39.8333 51.1979 40.4688 51.375 41.2188 51.375ZM85.6875 57.4688C84.8542 57.4688 83.9479 57.3958 82.9688 57.25C82.0104 57.125 81.0417 56.8438 80.0625 56.4062C79.1042 55.9688 78.1771 55.3542 77.2812 54.5625C76.4062 53.75 75.625 52.6875 74.9375 51.375C74.2708 50.0625 73.7292 48.4479 73.3125 46.5312C72.9167 44.5938 72.7188 42.2917 72.7188 39.625V20.7188C72.7188 18.0312 72.9271 15.7396 73.3438 13.8438C73.7604 11.9271 74.3125 10.3229 75 9.03125C75.6875 7.71875 76.4792 6.67708 77.375 5.90625C78.2708 5.13542 79.1979 4.55208 80.1562 4.15625C81.1146 3.73958 82.0625 3.46875 83 3.34375C83.9583 3.21875 84.8438 3.15625 85.6562 3.15625C87.7812 3.15625 89.5521 3.45833 90.9688 4.0625C92.4062 4.64583 93.5521 5.45833 94.4062 6.5C95.2812 7.52083 95.8958 8.71875 96.25 10.0938C96.625 11.4688 96.8125 12.9271 96.8125 14.4688C96.8125 15.6146 96.75 16.6771 96.625 17.6562C96.5208 18.6146 96.3542 19.6771 96.125 20.8438H89.5625V18.125C89.5625 15.1875 89.2396 12.9896 88.5938 11.5312C87.9479 10.0729 87 9.34375 85.75 9.34375C85 9.34375 84.3438 9.48958 83.7812 9.78125C83.2188 10.0729 82.75 10.5729 82.375 11.2812C82 11.9688 81.7083 12.8854 81.5 14.0312C81.3125 15.1771 81.2188 16.6042 81.2188 18.3125V42.6875C81.2188 44.3542 81.2917 45.7396 81.4375 46.8438C81.6042 47.9479 81.8646 48.8333 82.2188 49.5C82.5729 50.1667 83.0312 50.6458 83.5938 50.9375C84.1771 51.2083 84.875 51.3438 85.6875 51.3438C86.2083 51.3438 86.7083 51.2292 87.1875 51C87.6667 50.75 88.0833 50.375 88.4375 49.875C88.8125 49.3542 89.1042 48.7083 89.3125 47.9375C89.5417 47.1458 89.6562 46.2188 89.6562 45.1562V39.9375H97.0625V44.875C97.0625 49.1667 96.0833 52.3333 94.125 54.375C92.1667 56.4167 89.3542 57.4479 85.6875 57.4688ZM103.062 0.15625H110.969V57H103.062V0.15625ZM129.625 57.4688C127.771 57.4688 126.125 57.125 124.688 56.4375C123.271 55.75 122.073 54.6771 121.094 53.2188C120.115 51.7604 119.375 49.8958 118.875 47.625C118.375 45.3333 118.125 42.5833 118.125 39.375V31.25C118.125 28.5208 118.323 26.1875 118.719 24.25C119.135 22.2917 119.667 20.6562 120.312 19.3438C120.979 18.0104 121.74 16.9583 122.594 16.1875C123.469 15.4167 124.365 14.8333 125.281 14.4375C126.198 14.0208 127.104 13.7604 128 13.6562C128.917 13.5312 129.76 13.4688 130.531 13.4688C131.948 13.4688 133.312 13.6875 134.625 14.125C135.938 14.5417 137.094 15.2708 138.094 16.3125C139.094 17.3333 139.885 18.7083 140.469 20.4375C141.073 22.1667 141.375 24.3229 141.375 26.9062C141.375 27.7812 141.344 28.6667 141.281 29.5625C141.24 30.4583 141.177 31.3438 141.094 32.2188C141.01 33.0729 140.896 33.9062 140.75 34.7188C140.625 35.5312 140.49 36.2812 140.344 36.9688H126.062V41.3438C126.062 43.2188 126.135 44.8021 126.281 46.0938C126.427 47.3646 126.667 48.3958 127 49.1875C127.354 49.9583 127.823 50.5208 128.406 50.875C129.01 51.2083 129.76 51.375 130.656 51.375C131.135 51.375 131.604 51.2812 132.062 51.0938C132.521 50.8854 132.917 50.5521 133.25 50.0938C133.604 49.6354 133.885 49.0312 134.094 48.2812C134.302 47.5104 134.406 46.5625 134.406 45.4375V44.0938H141V45.75C141 49.8333 140.021 52.8125 138.062 54.6875C136.125 56.5417 133.312 57.4688 129.625 57.4688ZM134 31.6562C134.021 31.4271 134.042 31.125 134.062 30.75C134.083 30.3542 134.094 29.9479 134.094 29.5312C134.115 29.1146 134.125 28.7083 134.125 28.3125C134.125 27.8958 134.125 27.5417 134.125 27.25C134.125 24.4167 133.792 22.375 133.125 21.125C132.458 19.875 131.469 19.25 130.156 19.25C129.469 19.25 128.865 19.4167 128.344 19.75C127.823 20.0625 127.396 20.6042 127.062 21.375C126.729 22.125 126.479 23.125 126.312 24.375C126.146 25.625 126.062 27.1771 126.062 29.0312V31.6562H134ZM154 57.4688C152.667 57.4688 151.479 57.2083 150.438 56.6875C149.417 56.1458 148.552 55.4167 147.844 54.5C147.135 53.5833 146.594 52.5 146.219 51.25C145.865 49.9792 145.688 48.6042 145.688 47.125C145.688 45.3542 145.906 43.7812 146.344 42.4062C146.781 41.0312 147.417 39.7917 148.25 38.6875C149.104 37.5833 150.156 36.5833 151.406 35.6875C152.656 34.7708 154.104 33.9062 155.75 33.0938C156.542 32.6979 157.427 32.3021 158.406 31.9062C159.406 31.4896 160.292 31.1354 161.062 30.8438V25.1562C161.062 24.3229 161.031 23.5521 160.969 22.8438C160.906 22.1146 160.75 21.4896 160.5 20.9688C160.271 20.4271 159.917 20.0104 159.438 19.7188C158.958 19.4062 158.302 19.25 157.469 19.25C156.906 19.25 156.354 19.3542 155.812 19.5625C155.292 19.7708 154.823 20.125 154.406 20.625C154.01 21.125 153.688 21.7917 153.438 22.625C153.208 23.4583 153.094 24.4896 153.094 25.7188V27.5938H147.062C146.875 26.7812 146.729 26.0417 146.625 25.375C146.542 24.6875 146.5 24.0104 146.5 23.3438C146.5 21.7396 146.771 20.3229 147.312 19.0938C147.875 17.8646 148.646 16.8333 149.625 16C150.625 15.1667 151.812 14.5417 153.188 14.125C154.562 13.6875 156.073 13.4688 157.719 13.4688C159.865 13.4688 161.646 13.7083 163.062 14.1875C164.479 14.6458 165.604 15.3438 166.438 16.2812C167.292 17.2188 167.885 18.3958 168.219 19.8125C168.573 21.2292 168.75 22.8854 168.75 24.7812V57H162.875L162.312 53.3125C161.458 54.5417 160.312 55.5417 158.875 56.3125C157.458 57.0833 155.833 57.4688 154 57.4688ZM157.5 51.375C158.167 51.375 158.812 51.2083 159.438 50.875C160.083 50.5208 160.625 50.0938 161.062 49.5938V36.125C160.646 36.2917 160.177 36.4896 159.656 36.7188C159.135 36.9479 158.573 37.25 157.969 37.625C157.406 37.9792 156.854 38.4062 156.312 38.9062C155.771 39.4062 155.281 40 154.844 40.6875C154.427 41.375 154.083 42.1562 153.812 43.0312C153.562 43.8854 153.438 44.8438 153.438 45.9062C153.438 47.5521 153.76 48.875 154.406 49.875C155.052 50.875 156.083 51.375 157.5 51.375ZM176.938 13.9688H183.031L183.75 18.5625V18.5938C184.375 17.6146 185.042 16.8021 185.75 16.1562C186.479 15.4896 187.229 14.9583 188 14.5625C188.771 14.1667 189.552 13.8854 190.344 13.7188C191.156 13.5521 191.958 13.4688 192.75 13.4688C195.271 13.4688 197.208 14.3542 198.562 16.125C199.938 17.875 200.625 20.5104 200.625 24.0312V57H192.719V24.3125C192.719 22.4167 192.427 21.1042 191.844 20.375C191.26 19.625 190.406 19.25 189.281 19.25C188.49 19.25 187.698 19.5104 186.906 20.0312C186.135 20.5521 185.448 21.2708 184.844 22.1875V57H176.938V13.9688ZM208.875 13.9688H216.781V46.3125C216.781 48.2083 217.073 49.5312 217.656 50.2812C218.24 51.0104 219.094 51.375 220.219 51.375C221.01 51.375 221.781 51.1562 222.531 50.7188C223.281 50.2812 223.958 49.6562 224.562 48.8438V13.9688H232.469V57H226.438L225.656 52.4062H225.625C225 53.3854 224.333 54.2083 223.625 54.875C222.938 55.5208 222.208 56.0417 221.438 56.4375C220.688 56.8125 219.917 57.0833 219.125 57.25C218.333 57.4167 217.542 57.5 216.75 57.5C214.229 57.5 212.281 56.625 210.906 54.875C209.552 53.125 208.875 50.4792 208.875 46.9375V13.9688ZM248.656 59.4375V70.9062H240.75V13.9688H246.938L247.656 18.5C248.01 17.9167 248.427 17.3229 248.906 16.7188C249.406 16.1146 249.979 15.5833 250.625 15.125C251.292 14.6458 252.031 14.2604 252.844 13.9688C253.677 13.6562 254.604 13.5 255.625 13.5C256.062 13.5 256.583 13.5417 257.188 13.625C257.812 13.7083 258.448 13.9167 259.094 14.25C259.76 14.5833 260.417 15.0833 261.062 15.75C261.729 16.3958 262.312 17.2917 262.812 18.4375C263.333 19.5833 263.75 21.0104 264.062 22.7188C264.396 24.4271 264.562 26.5 264.562 28.9375V41.9688C264.562 44.4062 264.396 46.4792 264.062 48.1875C263.75 49.8958 263.333 51.3229 262.812 52.4688C262.292 53.6146 261.698 54.5208 261.031 55.1875C260.365 55.8542 259.688 56.3542 259 56.6875C258.312 57.0208 257.646 57.2292 257 57.3125C256.354 57.4167 255.792 57.4688 255.312 57.4688C253.646 57.4688 252.25 57.1458 251.125 56.5C250.021 55.8542 249.115 55.0729 248.406 54.1562L248.656 59.4375ZM248.656 48.2188C248.823 48.6354 249.021 49.0312 249.25 49.4062C249.5 49.7812 249.781 50.1146 250.094 50.4062C250.427 50.6979 250.792 50.9375 251.188 51.125C251.604 51.2917 252.083 51.375 252.625 51.375C253.208 51.375 253.74 51.2708 254.219 51.0625C254.698 50.8333 255.115 50.4375 255.469 49.875C255.823 49.2917 256.094 48.4896 256.281 47.4688C256.49 46.4479 256.594 45.1354 256.594 43.5312V27.0625C256.594 25.4583 256.49 24.1562 256.281 23.1562C256.094 22.1354 255.823 21.3333 255.469 20.75C255.135 20.1667 254.729 19.7708 254.25 19.5625C253.771 19.3542 253.24 19.25 252.656 19.25C251.656 19.25 250.833 19.5521 250.188 20.1562C249.562 20.7396 249.052 21.4271 248.656 22.2188V48.2188Z" fill="black"/>
</svg>
